PathFileType	4	(X/Y/Z)	PS_ngait_og_ss11.trc	
DataRate	CameraRate	NumFrames	NumMarkers	Units	OrigDataRate	OrigDataStartFrame	OrigNumFrames	
120.00	120.00	5	39	mm	120.00	800	132	
Frame#	Time	Sternum			Neck			RShoulder			LShoulder			Xiphoid			Thoracic			RAsis			LAsis			RPsis			LPsis			LThighSuperior			LThighInferior			LThighLateral			LShankSuperior			LShankInferior			LShankLateral			RThighSuperior			RThighInferior			RThighLateral			RShankSuperior			RShankInferior			RShankLateral			RHeel			RToe			RMidfootMedial			RMidfootLateral			RHindfoot			RMidfootSuperior			RToeMedial			RToeLateral			LHeel			LToe			LMidfootMedial			LMidfootLateral			LHindfoot			LMidfootSuperior			LToeMedial			LToeLateral			Sacral			
		X1	Y1	Z1	X2	Y2	Z2	X3	Y3	Z3	X4	Y4	Z4	X5	Y5	Z5	X6	Y6	Z6	X7	Y7	Z7	X8	Y8	Z8	X9	Y9	Z9	X10	Y10	Z10	X11	Y11	Z11	X12	Y12	Z12	X13	Y13	Z13	X14	Y14	Z14	X15	Y15	Z15	X16	Y16	Z16	X17	Y17	Z17	X18	Y18	Z18	X19	Y19	Z19	X20	Y20	Z20	X21	Y21	Z21	X22	Y22	Z22	X23	Y23	Z23	X24	Y24	Z24	X25	Y25	Z25	X26	Y26	Z26	X27	Y27	Z27	X28	Y28	Z28	X29	Y29	Z29	X30	Y30	Z30	X31	Y31	Z31	X32	Y32	Z32	X33	Y33	Z33	X34	Y34	Z34	X35	Y35	Z35	X36	Y36	Z36	X37	Y37	Z37	X38	Y38	Z38	X39	Y39	Z39	

67	0.550	717.95850	1436.63806	155.04437	553.32904	1534.05115	151.87720	597.24298	1525.90344	314.86026	585.92358	1522.87830	16.88296	752.44263	1277.97192	163.93784	474.75845	1315.49011	170.22911	672.72742	1006.24323	302.41949	667.75824	1009.99982	29.85667	481.92004	1038.27173	228.51517	472.78415	1031.86975	125.46770	554.97650	827.66748	-10.15220	538.98877	604.18970	23.70821	640.50983	691.61456	64.27981	467.10657	374.17874	28.22024	374.65573	195.25897	66.11300	453.40714	268.97784	99.91389	642.94452	815.27917	354.39474	735.60352	596.96368	321.97806	762.90320	763.30884	289.11957	759.63361	439.26669	327.72095	832.48395	196.27423	293.71872	854.37646	335.23532	258.61591	794.17688	57.35183	231.27940	1095.63721	138.60164	267.26889	1014.71448	93.14507	208.07878	1003.93396	79.37015	321.50693	956.36072	65.54578	308.58337	955.63489	134.04471	258.22528	1053.88672	110.20477	214.95714	1048.51392	103.19987	318.06183	247.66521	85.84403	125.04143	556.84454	49.16127	84.53163	457.80652	36.87178	147.25984	447.36771	31.44471	28.71141	393.49414	34.31621	44.43539	437.92517	96.89121	97.62907	501.28870	33.40097	138.48589	494.90268	37.15874	34.73359	477.35208	1035.07080	176.99144 
68	0.558	726.72668	1435.98267	156.55527	561.86676	1532.92908	153.54402	605.83154	1524.40552	316.57037	594.41980	1522.23926	18.50784	761.63391	1277.38586	164.96729	484.01083	1313.99890	171.53401	683.36884	1005.45648	303.07297	677.07367	1008.68799	30.65609	492.08069	1036.92310	230.17279	482.47913	1030.59119	127.03655	564.32056	826.93768	-10.06819	547.35944	603.52191	23.78691	649.24170	690.42053	64.00007	472.61703	374.07602	28.29816	377.55002	196.80882	66.21854	457.79990	269.53336	100.02130	655.29181	814.45355	354.36322	745.55463	595.03284	321.74771	774.61108	763.29022	289.39993	767.19324	437.17685	326.80927	834.42035	192.96971	290.75146	859.31891	331.48697	256.38416	794.98065	56.81682	230.05817	1098.60901	131.76723	259.92166	1015.72662	86.56791	203.00090	1006.39856	75.15613	316.61685	958.19720	62.62111	305.36374	958.40973	129.63916	253.37598	1055.43567	103.09418	208.93225	1051.74329	98.29272	312.23679	248.79971	89.13168	125.02247	557.24316	48.68502	84.36830	458.10834	37.01984	147.22690	447.45300	31.35688	28.66580	393.85538	34.70832	44.60338	439.16235	97.31268	97.34089	501.64114	33.32258	138.38971	495.21393	36.87599	34.63276	487.27991	1033.75720	178.60468 
69	0.567	735.52441	1435.36389	157.95912	570.39600	1531.86768	155.35840	614.51782	1522.97937	318.39728	602.81396	1521.51904	20.31111	771.04944	1276.86829	165.94540	493.32083	1312.67871	172.95535	694.20184	1004.83002	303.81018	686.52100	1007.60999	31.53956	502.42624	1035.61292	231.90341	492.34949	1029.27783	128.82587	574.16107	826.35730	-9.90751	556.18176	602.87366	23.72252	658.46991	689.37616	63.79701	478.61490	374.32608	28.26728	381.10162	199.04529	66.68177	462.87308	270.38818	100.43195	668.08496	813.18475	353.91360	754.70093	592.83160	321.30371	786.85089	762.88403	289.47443	774.00104	434.95236	325.68054	838.01367	190.33678	288.18103	864.77911	328.25040	254.17732	796.82635	56.92281	229.41933	1101.83203	125.14053	252.86827	1017.12701	80.75456	197.84933	1009.55322	70.56366	311.65750	961.09021	59.76867	301.91397	961.52173	125.31536	248.84445	1057.27539	96.70148	202.94907	1055.36255	92.97686	306.34628	250.21179	92.87729	124.92134	557.56537	48.33379	84.35122	458.45547	37.33442	147.17535	447.44690	31.33046	28.60198	394.69128	35.33033	44.80912	440.64166	97.85275	96.99895	501.88431	33.39410	138.40976	495.48636	36.67630	34.64207	497.38788	1032.44543	180.36464 
70	0.575	744.39673	1434.87854	159.45407	578.94135	1530.91882	157.40341	623.39618	1521.63892	320.38461	611.05444	1520.98975	22.20847	780.34924	1276.49280	166.85069	502.81546	1311.47961	174.53401	705.17859	1004.48712	304.55890	695.98358	1006.41644	32.35088	512.92731	1034.50146	233.59752	502.33932	1028.09131	130.68570	584.20978	825.73572	-9.79509	565.45972	602.07678	23.91139	667.90637	688.29047	63.54568	485.17215	374.78876	28.21354	384.16183	201.05040	66.27094	467.70367	270.62564	99.65420	680.81873	812.22864	353.21417	762.83069	590.81335	320.40451	799.01459	761.98804	289.28323	780.45197	432.34299	324.00293	843.65839	188.23238	286.28430	870.66443	325.73703	252.28040	799.43250	57.78189	229.39124	1105.75293	117.44926	245.92262	1018.96930	74.14868	193.28302	1013.32361	65.61900	307.37326	964.64240	56.21475	298.42017	965.42590	120.64022	244.75912	1059.56812	89.29192	197.34146	1059.71667	87.06816	300.79941	252.06853	97.21576	125.02207	557.81757	47.98062	84.35026	458.96103	37.75145	147.05620	447.35660	31.50493	28.47383	395.63803	35.80246	44.63306	442.39346	98.45355	96.59402	502.07007	33.49559	138.46404	495.64542	36.60332	34.69262	507.63330	1031.29639	182.14162 
71	0.583	753.38397	1434.62256	160.92458	587.42700	1530.06982	159.48975	632.39490	1520.35767	322.42776	619.18604	1520.60132	24.15375	789.98425	1276.35913	167.69099	512.39160	1310.39807	176.36960	716.21777	1004.09253	305.23407	705.39581	1005.81482	33.06155	523.50165	1033.58765	235.32153	512.30737	1027.10681	132.56602	595.22809	825.26172	-9.43836	575.18964	601.05170	24.33665	678.31244	687.35229	63.53867	494.41669	377.00015	26.38416	387.96072	203.08783	65.62173	473.04709	271.84335	99.70421	693.13190	811.62177	352.49957	769.96259	588.73743	319.26501	810.74030	760.04553	289.00891	787.31683	430.19135	322.63629	850.41821	186.40367	285.45111	876.43848	323.78909	249.85175	802.07556	58.93876	229.62617	1110.01697	108.04444	239.94350	1020.85181	67.16836	189.11749	1017.24963	59.66636	303.61292	968.04028	51.98374	295.52469	969.86591	115.73277	241.27367	1062.08105	81.07159	192.39757	1064.03564	79.51261	295.84933	254.20996	102.21906	124.63769	558.13049	47.52835	84.32584	459.66507	38.00877	146.92842	447.96344	31.66106	28.68172	396.97726	36.88922	44.74073	444.55649	99.16400	96.21291	502.36502	33.45353	138.52930	495.83405	36.43095	34.76070	517.90454	1030.34729	183.94377 
